/* XPM */
static char const * erase_xpm[] = {
"32 32 2 1",
" 	c #000000",
".	c #FF0000",
"                                ",
"                                ",
"                                ",
"   .                            ",
"   ...                .         ",
"     .               .. .       ",
"     ..             .....       ",
"     ...            ...         ",
"       ...         ...          ",
"       ....       ...           ",
"         ..       .             ",
"         ...     ..             ",
"          ...   ..              ",
"           ... ..               ",
"            .....               ",
"             ...                ",
"             ....               ",
"            ......              ",
"           ...  ...             ",
"          ....   ...            ",
"         ....     ...           ",
"         ...       ...          ",
"        ...         ...         ",
"       ...          ....        ",
"       ..            ....       ",
"      ..              ...       ",
"     ..                ...      ",
"    ...                 ...     ",
"    ..                   ..     ",
"                                ",
"                                ",
"                                "};
